<mxfile host="app.diagrams.net" agent="Mozilla/5.0 (Windows NT 10.0; Win64; x64) AppleWebKit/537.36 (KHTML, like Gecko) Chrome/133.0.0.0 Safari/537.36" version="26.0.15">
  <diagram name="Halaman-1" id="yWrUuN63hmlbnr-UX-83">
    <mxGraphModel dx="2647" dy="1643" grid="1" gridSize="10" guides="1" tooltips="1" connect="1" arrows="1" fold="1" page="1" pageScale="1" pageWidth="827" pageHeight="1169" math="0" shadow="0">
      <root>
        <mxCell id="0" />
        <mxCell id="1" parent="0" />
        <mxCell id="QIUo4ZG5Z6_2BP9jT4pO-23" value="Credit Card Transaction Process" style="swimlane;html=1;childLayout=stackLayout;resizeParent=1;resizeParentMax=0;startSize=20;whiteSpace=wrap;" vertex="1" parent="1">
          <mxGeometry x="20" y="30" width="1010" height="1430" as="geometry" />
        </mxCell>
        <mxCell id="QIUo4ZG5Z6_2BP9jT4pO-24" value="Buyer" style="swimlane;html=1;startSize=20;" vertex="1" parent="QIUo4ZG5Z6_2BP9jT4pO-23">
          <mxGeometry y="20" width="270" height="1410" as="geometry" />
        </mxCell>
        <mxCell id="QIUo4ZG5Z6_2BP9jT4pO-3" value="Select credit card payment" style="rounded=1;whiteSpace=wrap;html=1;arcSize=32;" vertex="1" parent="QIUo4ZG5Z6_2BP9jT4pO-24">
          <mxGeometry x="25" y="110" width="120" height="40" as="geometry" />
        </mxCell>
        <mxCell id="QIUo4ZG5Z6_2BP9jT4pO-14" value="" style="edgeStyle=orthogonalEdgeStyle;rounded=0;orthogonalLoop=1;jettySize=auto;html=1;" edge="1" parent="QIUo4ZG5Z6_2BP9jT4pO-24" source="QIUo4ZG5Z6_2BP9jT4pO-11" target="QIUo4ZG5Z6_2BP9jT4pO-3">
          <mxGeometry relative="1" as="geometry" />
        </mxCell>
        <mxCell id="QIUo4ZG5Z6_2BP9jT4pO-11" value="" style="ellipse;html=1;shape=startState;fillColor=#000000;strokeColor=#000000;" vertex="1" parent="QIUo4ZG5Z6_2BP9jT4pO-24">
          <mxGeometry x="70" y="40" width="30" height="30" as="geometry" />
        </mxCell>
        <mxCell id="QIUo4ZG5Z6_2BP9jT4pO-18" value="" style="edgeStyle=orthogonalEdgeStyle;rounded=0;orthogonalLoop=1;jettySize=auto;html=1;" edge="1" parent="QIUo4ZG5Z6_2BP9jT4pO-24" source="QIUo4ZG5Z6_2BP9jT4pO-15" target="QIUo4ZG5Z6_2BP9jT4pO-17">
          <mxGeometry relative="1" as="geometry" />
        </mxCell>
        <mxCell id="QIUo4ZG5Z6_2BP9jT4pO-15" value="Redirected to payment gateway" style="rounded=1;whiteSpace=wrap;html=1;arcSize=32;" vertex="1" parent="QIUo4ZG5Z6_2BP9jT4pO-24">
          <mxGeometry x="25" y="185" width="120" height="50" as="geometry" />
        </mxCell>
        <mxCell id="QIUo4ZG5Z6_2BP9jT4pO-17" value="Input credit card informations" style="rounded=1;whiteSpace=wrap;html=1;arcSize=32;" vertex="1" parent="QIUo4ZG5Z6_2BP9jT4pO-24">
          <mxGeometry x="25" y="272" width="120" height="50" as="geometry" />
        </mxCell>
        <mxCell id="QIUo4ZG5Z6_2BP9jT4pO-68" value="Input OTP" style="rounded=1;whiteSpace=wrap;html=1;arcSize=32;" vertex="1" parent="QIUo4ZG5Z6_2BP9jT4pO-24">
          <mxGeometry x="62" y="1064" width="125" height="48" as="geometry" />
        </mxCell>
        <mxCell id="QIUo4ZG5Z6_2BP9jT4pO-75" value="" style="html=1;points=[];perimeter=orthogonalPerimeter;fillColor=strokeColor;rotation=90;" vertex="1" parent="QIUo4ZG5Z6_2BP9jT4pO-24">
          <mxGeometry x="119.5" y="950" width="5" height="128" as="geometry" />
        </mxCell>
        <mxCell id="QIUo4ZG5Z6_2BP9jT4pO-78" value="" style="edgeStyle=orthogonalEdgeStyle;rounded=0;orthogonalLoop=1;jettySize=auto;html=1;entryX=0.5;entryY=0;entryDx=0;entryDy=0;exitX=0.532;exitY=0.476;exitDx=0;exitDy=0;exitPerimeter=0;" edge="1" parent="QIUo4ZG5Z6_2BP9jT4pO-24" source="QIUo4ZG5Z6_2BP9jT4pO-75" target="QIUo4ZG5Z6_2BP9jT4pO-68">
          <mxGeometry relative="1" as="geometry">
            <mxPoint x="124.5" y="1027" as="sourcePoint" />
            <mxPoint x="124.5" y="1057" as="targetPoint" />
            <Array as="points" />
          </mxGeometry>
        </mxCell>
        <mxCell id="QIUo4ZG5Z6_2BP9jT4pO-79" value="Redirected to bank&#39;s auth form" style="rounded=1;whiteSpace=wrap;html=1;arcSize=32;" vertex="1" parent="QIUo4ZG5Z6_2BP9jT4pO-24">
          <mxGeometry x="47" y="822" width="125" height="48" as="geometry" />
        </mxCell>
        <mxCell id="QIUo4ZG5Z6_2BP9jT4pO-81" value="Receive OTP" style="rounded=1;whiteSpace=wrap;html=1;arcSize=32;" vertex="1" parent="QIUo4ZG5Z6_2BP9jT4pO-24">
          <mxGeometry x="124.5" y="910" width="125" height="48" as="geometry" />
        </mxCell>
        <mxCell id="QIUo4ZG5Z6_2BP9jT4pO-85" style="edgeStyle=orthogonalEdgeStyle;rounded=0;orthogonalLoop=1;jettySize=auto;html=1;exitX=0.25;exitY=1;exitDx=0;exitDy=0;entryX=-0.3;entryY=0.844;entryDx=0;entryDy=0;entryPerimeter=0;" edge="1" parent="QIUo4ZG5Z6_2BP9jT4pO-24" source="QIUo4ZG5Z6_2BP9jT4pO-79" target="QIUo4ZG5Z6_2BP9jT4pO-75">
          <mxGeometry relative="1" as="geometry" />
        </mxCell>
        <mxCell id="QIUo4ZG5Z6_2BP9jT4pO-87" style="edgeStyle=orthogonalEdgeStyle;rounded=0;orthogonalLoop=1;jettySize=auto;html=1;exitX=0.5;exitY=1;exitDx=0;exitDy=0;entryX=0.47;entryY=0.283;entryDx=0;entryDy=0;entryPerimeter=0;" edge="1" parent="QIUo4ZG5Z6_2BP9jT4pO-24" source="QIUo4ZG5Z6_2BP9jT4pO-81" target="QIUo4ZG5Z6_2BP9jT4pO-75">
          <mxGeometry relative="1" as="geometry" />
        </mxCell>
        <mxCell id="QIUo4ZG5Z6_2BP9jT4pO-114" style="edgeStyle=orthogonalEdgeStyle;rounded=0;orthogonalLoop=1;jettySize=auto;html=1;exitX=0.5;exitY=1;exitDx=0;exitDy=0;entryX=0.5;entryY=1;entryDx=0;entryDy=0;" edge="1" parent="QIUo4ZG5Z6_2BP9jT4pO-24" source="QIUo4ZG5Z6_2BP9jT4pO-111" target="QIUo4ZG5Z6_2BP9jT4pO-111">
          <mxGeometry relative="1" as="geometry" />
        </mxCell>
        <mxCell id="QIUo4ZG5Z6_2BP9jT4pO-128" value="" style="edgeStyle=orthogonalEdgeStyle;rounded=0;orthogonalLoop=1;jettySize=auto;html=1;" edge="1" parent="QIUo4ZG5Z6_2BP9jT4pO-24" source="QIUo4ZG5Z6_2BP9jT4pO-111" target="QIUo4ZG5Z6_2BP9jT4pO-127">
          <mxGeometry relative="1" as="geometry" />
        </mxCell>
        <mxCell id="QIUo4ZG5Z6_2BP9jT4pO-111" value="Payment succesful" style="rounded=1;whiteSpace=wrap;html=1;arcSize=32;" vertex="1" parent="QIUo4ZG5Z6_2BP9jT4pO-24">
          <mxGeometry x="59.5" y="1200" width="125" height="48" as="geometry" />
        </mxCell>
        <mxCell id="QIUo4ZG5Z6_2BP9jT4pO-113" value="" style="ellipse;html=1;shape=endState;fillColor=#000000;strokeColor=light-dark(#000000, #ff9090);" vertex="1" parent="QIUo4ZG5Z6_2BP9jT4pO-24">
          <mxGeometry x="107" y="1360" width="30" height="30" as="geometry" />
        </mxCell>
        <mxCell id="QIUo4ZG5Z6_2BP9jT4pO-133" value="" style="edgeStyle=orthogonalEdgeStyle;rounded=0;orthogonalLoop=1;jettySize=auto;html=1;" edge="1" parent="QIUo4ZG5Z6_2BP9jT4pO-24" source="QIUo4ZG5Z6_2BP9jT4pO-127" target="QIUo4ZG5Z6_2BP9jT4pO-113">
          <mxGeometry relative="1" as="geometry" />
        </mxCell>
        <mxCell id="QIUo4ZG5Z6_2BP9jT4pO-127" value="" style="rhombus;whiteSpace=wrap;html=1;" vertex="1" parent="QIUo4ZG5Z6_2BP9jT4pO-24">
          <mxGeometry x="104" y="1300" width="35.5" height="30" as="geometry" />
        </mxCell>
        <mxCell id="QIUo4ZG5Z6_2BP9jT4pO-25" value="Payment Gateway" style="swimlane;html=1;startSize=20;" vertex="1" parent="QIUo4ZG5Z6_2BP9jT4pO-23">
          <mxGeometry x="270" y="20" width="200" height="1410" as="geometry" />
        </mxCell>
        <mxCell id="QIUo4ZG5Z6_2BP9jT4pO-28" value="Generate session" style="rounded=1;whiteSpace=wrap;html=1;arcSize=32;" vertex="1" parent="QIUo4ZG5Z6_2BP9jT4pO-25">
          <mxGeometry x="40" y="110" width="120" height="40" as="geometry" />
        </mxCell>
        <mxCell id="QIUo4ZG5Z6_2BP9jT4pO-37" value="" style="edgeStyle=orthogonalEdgeStyle;rounded=0;orthogonalLoop=1;jettySize=auto;html=1;entryX=0.5;entryY=0;entryDx=0;entryDy=0;" edge="1" parent="QIUo4ZG5Z6_2BP9jT4pO-25" source="QIUo4ZG5Z6_2BP9jT4pO-31" target="QIUo4ZG5Z6_2BP9jT4pO-34">
          <mxGeometry relative="1" as="geometry">
            <mxPoint x="99.47368421052647" y="358.5" as="targetPoint" />
          </mxGeometry>
        </mxCell>
        <mxCell id="QIUo4ZG5Z6_2BP9jT4pO-31" value="Tokenize data" style="rounded=1;whiteSpace=wrap;html=1;arcSize=32;" vertex="1" parent="QIUo4ZG5Z6_2BP9jT4pO-25">
          <mxGeometry x="40" y="273" width="120" height="48" as="geometry" />
        </mxCell>
        <mxCell id="QIUo4ZG5Z6_2BP9jT4pO-34" value="Send user data with TSL/SSL encryption" style="rounded=1;whiteSpace=wrap;html=1;arcSize=32;" vertex="1" parent="QIUo4ZG5Z6_2BP9jT4pO-25">
          <mxGeometry x="40" y="405" width="120" height="48" as="geometry" />
        </mxCell>
        <mxCell id="QIUo4ZG5Z6_2BP9jT4pO-62" value="Notify user that data is incorrect" style="rounded=1;whiteSpace=wrap;html=1;arcSize=32;" vertex="1" parent="QIUo4ZG5Z6_2BP9jT4pO-25">
          <mxGeometry x="40" y="650" width="120" height="48" as="geometry" />
        </mxCell>
        <mxCell id="QIUo4ZG5Z6_2BP9jT4pO-67" value="Redirect user to bank&#39;s auth form" style="rounded=1;whiteSpace=wrap;html=1;arcSize=32;" vertex="1" parent="QIUo4ZG5Z6_2BP9jT4pO-25">
          <mxGeometry x="35" y="822" width="125" height="48" as="geometry" />
        </mxCell>
        <mxCell id="QIUo4ZG5Z6_2BP9jT4pO-26" value="Bank" style="swimlane;html=1;startSize=20;" vertex="1" parent="QIUo4ZG5Z6_2BP9jT4pO-23">
          <mxGeometry x="470" y="20" width="310" height="1410" as="geometry" />
        </mxCell>
        <mxCell id="QIUo4ZG5Z6_2BP9jT4pO-51" value="" style="edgeStyle=orthogonalEdgeStyle;rounded=0;orthogonalLoop=1;jettySize=auto;html=1;" edge="1" parent="QIUo4ZG5Z6_2BP9jT4pO-26" source="QIUo4ZG5Z6_2BP9jT4pO-48" target="QIUo4ZG5Z6_2BP9jT4pO-50">
          <mxGeometry relative="1" as="geometry" />
        </mxCell>
        <mxCell id="QIUo4ZG5Z6_2BP9jT4pO-48" value="Detokenize data" style="rounded=1;whiteSpace=wrap;html=1;arcSize=32;" vertex="1" parent="QIUo4ZG5Z6_2BP9jT4pO-26">
          <mxGeometry x="25" y="405" width="120" height="48" as="geometry" />
        </mxCell>
        <mxCell id="QIUo4ZG5Z6_2BP9jT4pO-54" value="" style="edgeStyle=orthogonalEdgeStyle;rounded=0;orthogonalLoop=1;jettySize=auto;html=1;" edge="1" parent="QIUo4ZG5Z6_2BP9jT4pO-26" source="QIUo4ZG5Z6_2BP9jT4pO-50" target="QIUo4ZG5Z6_2BP9jT4pO-53">
          <mxGeometry relative="1" as="geometry" />
        </mxCell>
        <mxCell id="QIUo4ZG5Z6_2BP9jT4pO-50" value="Verify data" style="rounded=1;whiteSpace=wrap;html=1;arcSize=32;" vertex="1" parent="QIUo4ZG5Z6_2BP9jT4pO-26">
          <mxGeometry x="26" y="487" width="120" height="48" as="geometry" />
        </mxCell>
        <mxCell id="QIUo4ZG5Z6_2BP9jT4pO-56" value="" style="edgeStyle=orthogonalEdgeStyle;rounded=0;orthogonalLoop=1;jettySize=auto;html=1;" edge="1" parent="QIUo4ZG5Z6_2BP9jT4pO-26" source="QIUo4ZG5Z6_2BP9jT4pO-53" target="QIUo4ZG5Z6_2BP9jT4pO-55">
          <mxGeometry relative="1" as="geometry" />
        </mxCell>
        <mxCell id="QIUo4ZG5Z6_2BP9jT4pO-53" value="Correct Data?" style="shape=hexagon;perimeter=hexagonPerimeter2;whiteSpace=wrap;html=1;fixedSize=1;" vertex="1" parent="QIUo4ZG5Z6_2BP9jT4pO-26">
          <mxGeometry x="26" y="580" width="120" height="30" as="geometry" />
        </mxCell>
        <mxCell id="QIUo4ZG5Z6_2BP9jT4pO-55" value="Send error message" style="rounded=1;whiteSpace=wrap;html=1;arcSize=32;" vertex="1" parent="QIUo4ZG5Z6_2BP9jT4pO-26">
          <mxGeometry x="26" y="650" width="120" height="48" as="geometry" />
        </mxCell>
        <mxCell id="QIUo4ZG5Z6_2BP9jT4pO-57" value="No" style="text;html=1;align=center;verticalAlign=middle;resizable=0;points=[];autosize=1;strokeColor=none;fillColor=none;" vertex="1" parent="QIUo4ZG5Z6_2BP9jT4pO-26">
          <mxGeometry x="50" y="610" width="40" height="30" as="geometry" />
        </mxCell>
        <mxCell id="QIUo4ZG5Z6_2BP9jT4pO-58" value="Request for 3DS OTP" style="rounded=1;whiteSpace=wrap;html=1;arcSize=32;" vertex="1" parent="QIUo4ZG5Z6_2BP9jT4pO-26">
          <mxGeometry x="161" y="822" width="125" height="48" as="geometry" />
        </mxCell>
        <mxCell id="QIUo4ZG5Z6_2BP9jT4pO-64" value="" style="edgeStyle=orthogonalEdgeStyle;rounded=0;orthogonalLoop=1;jettySize=auto;html=1;exitX=1.084;exitY=0.227;exitDx=0;exitDy=0;exitPerimeter=0;" edge="1" parent="QIUo4ZG5Z6_2BP9jT4pO-26" source="QIUo4ZG5Z6_2BP9jT4pO-60" target="QIUo4ZG5Z6_2BP9jT4pO-58">
          <mxGeometry relative="1" as="geometry" />
        </mxCell>
        <mxCell id="QIUo4ZG5Z6_2BP9jT4pO-60" value="" style="html=1;points=[];perimeter=orthogonalPerimeter;fillColor=strokeColor;rotation=90;" vertex="1" parent="QIUo4ZG5Z6_2BP9jT4pO-26">
          <mxGeometry x="158.5" y="645" width="5" height="230" as="geometry" />
        </mxCell>
        <mxCell id="QIUo4ZG5Z6_2BP9jT4pO-61" style="edgeStyle=orthogonalEdgeStyle;rounded=0;orthogonalLoop=1;jettySize=auto;html=1;exitX=1;exitY=0.5;exitDx=0;exitDy=0;entryX=0.011;entryY=0.475;entryDx=0;entryDy=0;entryPerimeter=0;" edge="1" parent="QIUo4ZG5Z6_2BP9jT4pO-26" source="QIUo4ZG5Z6_2BP9jT4pO-53" target="QIUo4ZG5Z6_2BP9jT4pO-60">
          <mxGeometry relative="1" as="geometry">
            <Array as="points">
              <mxPoint x="166" y="595" />
              <mxPoint x="166" y="730" />
              <mxPoint x="167" y="730" />
            </Array>
          </mxGeometry>
        </mxCell>
        <mxCell id="QIUo4ZG5Z6_2BP9jT4pO-65" value="Generate auth form" style="rounded=1;whiteSpace=wrap;html=1;arcSize=32;" vertex="1" parent="QIUo4ZG5Z6_2BP9jT4pO-26">
          <mxGeometry x="27" y="822" width="125" height="48" as="geometry" />
        </mxCell>
        <mxCell id="QIUo4ZG5Z6_2BP9jT4pO-66" value="" style="edgeStyle=orthogonalEdgeStyle;rounded=0;orthogonalLoop=1;jettySize=auto;html=1;exitX=1.03;exitY=0.807;exitDx=0;exitDy=0;exitPerimeter=0;entryX=0.5;entryY=0;entryDx=0;entryDy=0;" edge="1" parent="QIUo4ZG5Z6_2BP9jT4pO-26" source="QIUo4ZG5Z6_2BP9jT4pO-60" target="QIUo4ZG5Z6_2BP9jT4pO-65">
          <mxGeometry relative="1" as="geometry">
            <mxPoint x="164" y="773" as="sourcePoint" />
            <mxPoint x="233" y="813" as="targetPoint" />
            <Array as="points">
              <mxPoint x="90" y="763" />
            </Array>
          </mxGeometry>
        </mxCell>
        <mxCell id="QIUo4ZG5Z6_2BP9jT4pO-88" value="Receive user input" style="rounded=1;whiteSpace=wrap;html=1;arcSize=32;" vertex="1" parent="QIUo4ZG5Z6_2BP9jT4pO-26">
          <mxGeometry x="88.5" y="1065" width="125" height="48" as="geometry" />
        </mxCell>
        <mxCell id="QIUo4ZG5Z6_2BP9jT4pO-109" value="Process transaction" style="rounded=1;whiteSpace=wrap;html=1;arcSize=32;" vertex="1" parent="QIUo4ZG5Z6_2BP9jT4pO-26">
          <mxGeometry x="80" y="1200" width="125" height="48" as="geometry" />
        </mxCell>
        <mxCell id="QIUo4ZG5Z6_2BP9jT4pO-123" value="Lock user" style="rounded=1;whiteSpace=wrap;html=1;arcSize=32;" vertex="1" parent="QIUo4ZG5Z6_2BP9jT4pO-26">
          <mxGeometry x="82" y="1292" width="125" height="48" as="geometry" />
        </mxCell>
        <mxCell id="QIUo4ZG5Z6_2BP9jT4pO-29" value="" style="edgeStyle=orthogonalEdgeStyle;rounded=0;orthogonalLoop=1;jettySize=auto;html=1;" edge="1" parent="QIUo4ZG5Z6_2BP9jT4pO-23" source="QIUo4ZG5Z6_2BP9jT4pO-3" target="QIUo4ZG5Z6_2BP9jT4pO-28">
          <mxGeometry relative="1" as="geometry" />
        </mxCell>
        <mxCell id="QIUo4ZG5Z6_2BP9jT4pO-30" style="edgeStyle=orthogonalEdgeStyle;rounded=0;orthogonalLoop=1;jettySize=auto;html=1;exitX=0.5;exitY=1;exitDx=0;exitDy=0;entryX=1;entryY=0.5;entryDx=0;entryDy=0;" edge="1" parent="QIUo4ZG5Z6_2BP9jT4pO-23" source="QIUo4ZG5Z6_2BP9jT4pO-28" target="QIUo4ZG5Z6_2BP9jT4pO-15">
          <mxGeometry relative="1" as="geometry" />
        </mxCell>
        <mxCell id="QIUo4ZG5Z6_2BP9jT4pO-32" value="" style="edgeStyle=orthogonalEdgeStyle;rounded=0;orthogonalLoop=1;jettySize=auto;html=1;" edge="1" parent="QIUo4ZG5Z6_2BP9jT4pO-23" source="QIUo4ZG5Z6_2BP9jT4pO-17" target="QIUo4ZG5Z6_2BP9jT4pO-31">
          <mxGeometry relative="1" as="geometry" />
        </mxCell>
        <mxCell id="QIUo4ZG5Z6_2BP9jT4pO-49" value="" style="edgeStyle=orthogonalEdgeStyle;rounded=0;orthogonalLoop=1;jettySize=auto;html=1;" edge="1" parent="QIUo4ZG5Z6_2BP9jT4pO-23" source="QIUo4ZG5Z6_2BP9jT4pO-34" target="QIUo4ZG5Z6_2BP9jT4pO-48">
          <mxGeometry relative="1" as="geometry" />
        </mxCell>
        <mxCell id="QIUo4ZG5Z6_2BP9jT4pO-63" value="" style="edgeStyle=orthogonalEdgeStyle;rounded=0;orthogonalLoop=1;jettySize=auto;html=1;" edge="1" parent="QIUo4ZG5Z6_2BP9jT4pO-23" source="QIUo4ZG5Z6_2BP9jT4pO-55" target="QIUo4ZG5Z6_2BP9jT4pO-62">
          <mxGeometry relative="1" as="geometry" />
        </mxCell>
        <mxCell id="QIUo4ZG5Z6_2BP9jT4pO-69" value="" style="edgeStyle=orthogonalEdgeStyle;rounded=0;orthogonalLoop=1;jettySize=auto;html=1;" edge="1" parent="QIUo4ZG5Z6_2BP9jT4pO-23" source="QIUo4ZG5Z6_2BP9jT4pO-65" target="QIUo4ZG5Z6_2BP9jT4pO-67">
          <mxGeometry relative="1" as="geometry" />
        </mxCell>
        <mxCell id="QIUo4ZG5Z6_2BP9jT4pO-72" value="" style="edgeStyle=orthogonalEdgeStyle;rounded=0;orthogonalLoop=1;jettySize=auto;html=1;" edge="1" parent="QIUo4ZG5Z6_2BP9jT4pO-23" source="QIUo4ZG5Z6_2BP9jT4pO-58" target="QIUo4ZG5Z6_2BP9jT4pO-71">
          <mxGeometry relative="1" as="geometry" />
        </mxCell>
        <mxCell id="QIUo4ZG5Z6_2BP9jT4pO-77" style="edgeStyle=orthogonalEdgeStyle;rounded=0;orthogonalLoop=1;jettySize=auto;html=1;exitX=0;exitY=0.5;exitDx=0;exitDy=0;entryX=1;entryY=0.5;entryDx=0;entryDy=0;" edge="1" parent="QIUo4ZG5Z6_2BP9jT4pO-23" source="QIUo4ZG5Z6_2BP9jT4pO-67" target="QIUo4ZG5Z6_2BP9jT4pO-79">
          <mxGeometry relative="1" as="geometry">
            <mxPoint x="140" y="866" as="targetPoint" />
          </mxGeometry>
        </mxCell>
        <mxCell id="QIUo4ZG5Z6_2BP9jT4pO-82" style="edgeStyle=orthogonalEdgeStyle;rounded=0;orthogonalLoop=1;jettySize=auto;html=1;exitX=0;exitY=0.5;exitDx=0;exitDy=0;entryX=1;entryY=0.5;entryDx=0;entryDy=0;" edge="1" parent="QIUo4ZG5Z6_2BP9jT4pO-23" source="QIUo4ZG5Z6_2BP9jT4pO-73" target="QIUo4ZG5Z6_2BP9jT4pO-81">
          <mxGeometry relative="1" as="geometry" />
        </mxCell>
        <mxCell id="QIUo4ZG5Z6_2BP9jT4pO-89" style="edgeStyle=orthogonalEdgeStyle;rounded=0;orthogonalLoop=1;jettySize=auto;html=1;exitX=1;exitY=0.5;exitDx=0;exitDy=0;entryX=0;entryY=0.5;entryDx=0;entryDy=0;" edge="1" parent="QIUo4ZG5Z6_2BP9jT4pO-23" source="QIUo4ZG5Z6_2BP9jT4pO-68" target="QIUo4ZG5Z6_2BP9jT4pO-88">
          <mxGeometry relative="1" as="geometry" />
        </mxCell>
        <mxCell id="QIUo4ZG5Z6_2BP9jT4pO-107" style="edgeStyle=orthogonalEdgeStyle;rounded=0;orthogonalLoop=1;jettySize=auto;html=1;exitX=1;exitY=0.5;exitDx=0;exitDy=0;" edge="1" parent="QIUo4ZG5Z6_2BP9jT4pO-23" source="QIUo4ZG5Z6_2BP9jT4pO-88" target="QIUo4ZG5Z6_2BP9jT4pO-106">
          <mxGeometry relative="1" as="geometry" />
        </mxCell>
        <mxCell id="QIUo4ZG5Z6_2BP9jT4pO-110" style="edgeStyle=orthogonalEdgeStyle;rounded=0;orthogonalLoop=1;jettySize=auto;html=1;exitX=0.5;exitY=1;exitDx=0;exitDy=0;entryX=1;entryY=0.5;entryDx=0;entryDy=0;" edge="1" parent="QIUo4ZG5Z6_2BP9jT4pO-23" source="QIUo4ZG5Z6_2BP9jT4pO-108" target="QIUo4ZG5Z6_2BP9jT4pO-109">
          <mxGeometry relative="1" as="geometry" />
        </mxCell>
        <mxCell id="QIUo4ZG5Z6_2BP9jT4pO-112" style="edgeStyle=orthogonalEdgeStyle;rounded=0;orthogonalLoop=1;jettySize=auto;html=1;exitX=0;exitY=0.5;exitDx=0;exitDy=0;entryX=1;entryY=0.5;entryDx=0;entryDy=0;" edge="1" parent="QIUo4ZG5Z6_2BP9jT4pO-23" source="QIUo4ZG5Z6_2BP9jT4pO-109" target="QIUo4ZG5Z6_2BP9jT4pO-111">
          <mxGeometry relative="1" as="geometry" />
        </mxCell>
        <mxCell id="QIUo4ZG5Z6_2BP9jT4pO-129" style="edgeStyle=orthogonalEdgeStyle;rounded=0;orthogonalLoop=1;jettySize=auto;html=1;exitX=0;exitY=0.5;exitDx=0;exitDy=0;entryX=1;entryY=0.5;entryDx=0;entryDy=0;" edge="1" parent="QIUo4ZG5Z6_2BP9jT4pO-23" source="QIUo4ZG5Z6_2BP9jT4pO-123" target="QIUo4ZG5Z6_2BP9jT4pO-127">
          <mxGeometry relative="1" as="geometry" />
        </mxCell>
        <mxCell id="QIUo4ZG5Z6_2BP9jT4pO-130" style="edgeStyle=orthogonalEdgeStyle;rounded=0;orthogonalLoop=1;jettySize=auto;html=1;exitX=0;exitY=0.5;exitDx=0;exitDy=0;entryX=1;entryY=0.5;entryDx=0;entryDy=0;" edge="1" parent="QIUo4ZG5Z6_2BP9jT4pO-23" source="QIUo4ZG5Z6_2BP9jT4pO-118" target="QIUo4ZG5Z6_2BP9jT4pO-123">
          <mxGeometry relative="1" as="geometry" />
        </mxCell>
        <mxCell id="QIUo4ZG5Z6_2BP9jT4pO-59" value="3D Secure Authentication" style="swimlane;html=1;startSize=20;" vertex="1" parent="QIUo4ZG5Z6_2BP9jT4pO-23">
          <mxGeometry x="780" y="20" width="230" height="1410" as="geometry" />
        </mxCell>
        <mxCell id="QIUo4ZG5Z6_2BP9jT4pO-74" value="" style="edgeStyle=orthogonalEdgeStyle;rounded=0;orthogonalLoop=1;jettySize=auto;html=1;" edge="1" parent="QIUo4ZG5Z6_2BP9jT4pO-59" source="QIUo4ZG5Z6_2BP9jT4pO-71" target="QIUo4ZG5Z6_2BP9jT4pO-73">
          <mxGeometry relative="1" as="geometry" />
        </mxCell>
        <mxCell id="QIUo4ZG5Z6_2BP9jT4pO-71" value="Generate OTP" style="rounded=1;whiteSpace=wrap;html=1;arcSize=32;" vertex="1" parent="QIUo4ZG5Z6_2BP9jT4pO-59">
          <mxGeometry x="42.5" y="822" width="125" height="48" as="geometry" />
        </mxCell>
        <mxCell id="QIUo4ZG5Z6_2BP9jT4pO-73" value="Send OTP" style="rounded=1;whiteSpace=wrap;html=1;arcSize=32;" vertex="1" parent="QIUo4ZG5Z6_2BP9jT4pO-59">
          <mxGeometry x="43.5" y="910" width="125" height="48" as="geometry" />
        </mxCell>
        <mxCell id="QIUo4ZG5Z6_2BP9jT4pO-115" value="" style="edgeStyle=orthogonalEdgeStyle;rounded=0;orthogonalLoop=1;jettySize=auto;html=1;" edge="1" parent="QIUo4ZG5Z6_2BP9jT4pO-59" source="QIUo4ZG5Z6_2BP9jT4pO-106" target="QIUo4ZG5Z6_2BP9jT4pO-108">
          <mxGeometry relative="1" as="geometry" />
        </mxCell>
        <mxCell id="QIUo4ZG5Z6_2BP9jT4pO-106" value="Verify OTP" style="rounded=1;whiteSpace=wrap;html=1;arcSize=32;" vertex="1" parent="QIUo4ZG5Z6_2BP9jT4pO-59">
          <mxGeometry x="45" y="1065" width="125" height="48" as="geometry" />
        </mxCell>
        <mxCell id="QIUo4ZG5Z6_2BP9jT4pO-119" style="edgeStyle=orthogonalEdgeStyle;rounded=0;orthogonalLoop=1;jettySize=auto;html=1;exitX=1;exitY=0.5;exitDx=0;exitDy=0;" edge="1" parent="QIUo4ZG5Z6_2BP9jT4pO-59" source="QIUo4ZG5Z6_2BP9jT4pO-108" target="QIUo4ZG5Z6_2BP9jT4pO-118">
          <mxGeometry relative="1" as="geometry">
            <Array as="points">
              <mxPoint x="187" y="1181" />
              <mxPoint x="187" y="1260" />
              <mxPoint x="106" y="1260" />
            </Array>
          </mxGeometry>
        </mxCell>
        <mxCell id="QIUo4ZG5Z6_2BP9jT4pO-108" value="OTP Correct?" style="shape=hexagon;perimeter=hexagonPerimeter2;whiteSpace=wrap;html=1;fixedSize=1;" vertex="1" parent="QIUo4ZG5Z6_2BP9jT4pO-59">
          <mxGeometry x="46.5" y="1166" width="120" height="30" as="geometry" />
        </mxCell>
        <mxCell id="QIUo4ZG5Z6_2BP9jT4pO-116" value="Yes" style="text;html=1;align=center;verticalAlign=middle;resizable=0;points=[];autosize=1;strokeColor=none;fillColor=none;" vertex="1" parent="QIUo4ZG5Z6_2BP9jT4pO-59">
          <mxGeometry x="60" y="1196" width="40" height="30" as="geometry" />
        </mxCell>
        <mxCell id="QIUo4ZG5Z6_2BP9jT4pO-121" style="edgeStyle=orthogonalEdgeStyle;rounded=0;orthogonalLoop=1;jettySize=auto;html=1;exitX=1;exitY=0.5;exitDx=0;exitDy=0;entryX=1;entryY=0.5;entryDx=0;entryDy=0;" edge="1" parent="QIUo4ZG5Z6_2BP9jT4pO-59" source="QIUo4ZG5Z6_2BP9jT4pO-118" target="QIUo4ZG5Z6_2BP9jT4pO-71">
          <mxGeometry relative="1" as="geometry">
            <Array as="points">
              <mxPoint x="200" y="1316" />
              <mxPoint x="200" y="846" />
            </Array>
          </mxGeometry>
        </mxCell>
        <mxCell id="QIUo4ZG5Z6_2BP9jT4pO-118" value="Failed &amp;gt; 3 times ?" style="shape=hexagon;perimeter=hexagonPerimeter2;whiteSpace=wrap;html=1;fixedSize=1;" vertex="1" parent="QIUo4ZG5Z6_2BP9jT4pO-59">
          <mxGeometry x="46" y="1301" width="120" height="30" as="geometry" />
        </mxCell>
        <mxCell id="QIUo4ZG5Z6_2BP9jT4pO-120" value="No" style="text;html=1;align=center;verticalAlign=middle;resizable=0;points=[];autosize=1;strokeColor=none;fillColor=none;" vertex="1" parent="QIUo4ZG5Z6_2BP9jT4pO-59">
          <mxGeometry x="150" y="1196" width="40" height="30" as="geometry" />
        </mxCell>
        <mxCell id="QIUo4ZG5Z6_2BP9jT4pO-122" value="No" style="text;html=1;align=center;verticalAlign=middle;resizable=0;points=[];autosize=1;strokeColor=none;fillColor=none;" vertex="1" parent="QIUo4ZG5Z6_2BP9jT4pO-59">
          <mxGeometry x="150" y="1280" width="40" height="30" as="geometry" />
        </mxCell>
        <mxCell id="QIUo4ZG5Z6_2BP9jT4pO-131" value="Yes" style="text;html=1;align=center;verticalAlign=middle;resizable=0;points=[];autosize=1;strokeColor=none;fillColor=none;" vertex="1" parent="QIUo4ZG5Z6_2BP9jT4pO-59">
          <mxGeometry x="10" y="1280" width="40" height="30" as="geometry" />
        </mxCell>
        <mxCell id="QIUo4ZG5Z6_2BP9jT4pO-132" style="edgeStyle=orthogonalEdgeStyle;rounded=0;orthogonalLoop=1;jettySize=auto;html=1;exitX=0;exitY=0.5;exitDx=0;exitDy=0;entryX=0;entryY=0.5;entryDx=0;entryDy=0;" edge="1" parent="QIUo4ZG5Z6_2BP9jT4pO-23" source="QIUo4ZG5Z6_2BP9jT4pO-62" target="QIUo4ZG5Z6_2BP9jT4pO-127">
          <mxGeometry relative="1" as="geometry">
            <Array as="points">
              <mxPoint x="20" y="694" />
              <mxPoint x="20" y="1335" />
            </Array>
          </mxGeometry>
        </mxCell>
      </root>
    </mxGraphModel>
  </diagram>
</mxfile>
